<svg xmlns="http://www.w3.org/2000/svg" width="149.524" height="129.632" viewBox="0 0 149.524 129.632">
  <g id="Group_11663" data-name="Group 11663" transform="translate(-580.421 -208.273)">
    <path id="Path_22128" data-name="Path 22128" d="M1511.7,1080.314a12.34,12.34,0,0,0-7.049,4.393,38.912,38.912,0,0,0-13.234-15.14c2.017-1.293,7.487-4.041,12.948-.178A19.164,19.164,0,0,1,1511.7,1080.314Z" transform="translate(-796.294 -759.574)" fill="#ffa076"/>
    <path id="Path_22129" data-name="Path 22129" d="M925.514,1077.15H802.233a8.872,8.872,0,0,1-1.173-2.2c-2.708-7.5,5.226-18.284,15-20,7.252-1.27,14.987,2.549,19.569,9.571,15.567-17.617,37.558-23.8,53.563-16.285a31.466,31.466,0,0,1,3.621,2,38.91,38.91,0,0,1,13.234,15.14,12.34,12.34,0,0,1,7.049-4.393,11.251,11.251,0,0,1,8.663,1.536C926.258,1065.547,927.907,1071.878,925.514,1077.15Z" transform="translate(-197.687 -740.245)" fill="#fff" stroke="#1a1a1a" stroke-linecap="round" stroke-linejoin="round" stroke-width="2"/>
    <g id="Group_11652" data-name="Group 11652" transform="translate(617.913 208.777)">
      <path id="Path_22131" data-name="Path 22131" d="M1283.286,611.71c-.571-10.141-2.19-42.208-2.19-42.208s8.094,7.927,15.76,25.877c4.732,11.081,4.475,25-6,34.757l-3.19-1.952s2.714-12.617-4.38-16.474" transform="translate(-1231.978 -536.956)" fill="#b3b9ff" stroke="#1a1a1a" stroke-linecap="round" stroke-linejoin="round" stroke-width="1.5"/>
      <path id="Path_22132" data-name="Path 22132" d="M1294.132,735.424s.4,16.171-1.706,21.321c-2.772-1.848-2.772-2.086-2.772-2.086Z" transform="translate(-1239.392 -680.714)" fill="#1a1a1a"/>
      <path id="Path_22133" data-name="Path 22133" d="M963.326,372.357s-6.793,1.143-7.11-5.206,9.032-3.936,8.357-8.57-8.365-7.014-8.016-11.434a7.286,7.286,0,0,1,5.119-7.674c-3.047-1.968-3.618-9.078.762-11.744s9.586-.317,11.046,1.333c2.666-2.857,7.139-5.206,11.283-.635s3.763,8.316.335,10.919c.571,2.285.088,4.284-1.353,4.649s-6.329,5.149-6.329,5.149l-.3,14.832Z" transform="translate(-950.488 -325.853)" fill="#25383f" stroke="#1a1a1a" stroke-linecap="round" stroke-linejoin="round" stroke-width="1"/>
      <path id="Path_22134" data-name="Path 22134" d="M1000.4,1021.818l1.46-1.333,31.551-.508s17,8.411,19.283,27.98l.285,7.427H998.419v-1S990.309,1032.927,1000.4,1021.818Z" transform="translate(-984.391 -927.257)" fill="#fff" stroke="#1a1a1a" stroke-linecap="round" stroke-linejoin="round" stroke-width="1.5"/>
      <path id="Path_22135" data-name="Path 22135" d="M1042.223,1019.977l-.411,3.795s1.079,4.268,13.649,3.506l-.064-.762a31.963,31.963,0,0,0,9.9-1.587c4.729-1.682,5.086-2.638,5.086-2.638l-22.067-.632Z" transform="translate(-1024.657 -927.257)" fill="#1a1a1a"/>
      <path id="Path_22136" data-name="Path 22136" d="M989.049,619.2c-.451-1.236-15.447-41.28-7.795-49.421s23.935-16.14,31.648-16.14,11.506,6.174,12.141,18.235-3.333,40.851-7.808,45.9C1008.475,621.488,991.874,622.377,989.049,619.2Z" transform="translate(-970.307 -523.214)" fill="#b3b9ff" stroke="#1a1a1a" stroke-linecap="round" stroke-linejoin="round" stroke-width="1.5"/>
      <path id="Path_22137" data-name="Path 22137" d="M1294.285,1012.016s-2.453,2.321-3.607-.714c-.546-1.436,1.285-1.476,2.182-1.608a15.984,15.984,0,0,1,1.629-.123l2.805,1.588a4.555,4.555,0,0,1-1.6,4.038c-1.386,1.129-2.18,2.414-4.322.975-2.856-1.919-2.4-2.762-2.255-3.824a3.033,3.033,0,0,1,1.763-2.275" transform="translate(-1238.823 -918.24)" fill="#fff" stroke="#1a1a1a" stroke-linecap="round" stroke-linejoin="round" stroke-width="2"/>
      <path id="Path_22138" data-name="Path 22138" d="M925.366,666.636c-18.094,10.761-12.917,44.913-2.633,46.5s15.236-7.809,18.791-17.077a8.782,8.782,0,0,0-7.047-8.951c-6.031,1.46-8.532,10.556-8.532,10.556" transform="translate(-913.386 -621.115)" fill="#b3b9ff" stroke="#1a1a1a" stroke-linecap="round" stroke-linejoin="round" stroke-width="1.5"/>
      <path id="Path_22139" data-name="Path 22139" d="M1063.861,822.989s-3.666,4.38,2.238,7.951,4.452-1.19,4.38-1.5S1066.694,822.584,1063.861,822.989Z" transform="translate(-1042.786 -756.567)" fill="#1a1a1a"/>
      <path id="Path_22140" data-name="Path 22140" d="M1083.627,731.047c1.365,1.143,3.777,1.27,4.761,1.3s2.412-.857,1.46-1.873c1.238.032,1.841-1.587.586-2.571,1.538-.159,1.271-2.46,0-2.888.538,0,1.08-.333,1.223-1.476s-1.809-1.714-7-1.238c.238-1.952-1.761-6.808-3.9-6s-.19,4.38.286,7.618-2.761,8.237-2.809,8.427c0,0-.952,4.126,4.507,4.7,1.841-3.4,2.934-5.041,2.934-5.041" transform="translate(-1056.156 -664.07)" fill="#fff" stroke="#1a1a1a" stroke-linecap="round" stroke-linejoin="round" stroke-width="2"/>
      <path id="Path_22141" data-name="Path 22141" d="M1048.428,401.884c-.349,4.539,1.96,8.538,3.222,9.4,1,.071,3.38-1.238,4.142.349-4.063,14.6-18.283,8.126-18.283,8.126s-.921-.825.984-1.936,3.079-7.777.1-11.681c1.238-1.174,1.087-5.333-.46-7.927-2.547-.429-4.333-3.19-2.095-4.737s8.84.635,7.6-7.713c4.634.1,8.6,1.428,8.538,8.158s-4,9.364-10.379,9.776" transform="translate(-1018.767 -377.757)" fill="#fff" stroke="#1a1a1a" stroke-linecap="round" stroke-linejoin="round" stroke-width="2"/>
      <path id="Path_22142" data-name="Path 22142" d="M1097.654,508.813s4.682.238,4.92-.46l.12-1.162A18.139,18.139,0,0,1,1097.654,508.813Z" transform="translate(-1073.04 -482.967)" fill="#1a1a1a"/>
      <path id="Path_22143" data-name="Path 22143" d="M984.666,850.2a46.493,46.493,0,0,0,1.387,6.509,7.33,7.33,0,0,0-3.291,2.156" transform="translate(-973.495 -780.154)" fill="#ff6d24" stroke="#1a1a1a" stroke-linecap="round" stroke-linejoin="round" stroke-width="2"/>
      <path id="Path_22144" data-name="Path 22144" d="M1021.835,1048.387s3.494,6.3,12.953,6.3" transform="translate(-1007.349 -951.872)" fill="#fff" stroke="#1a1a1a" stroke-linecap="round" stroke-linejoin="round" stroke-width="2"/>
      <path id="Path_22145" data-name="Path 22145" d="M1168.69,560.684s7.246-1.148,3.074,5.613-6.553,8.761-5.982,13.427" transform="translate(-1131.995 -529.252)" fill="none" stroke="#1a1a1a" stroke-linecap="round" stroke-linejoin="round" stroke-width="2"/>
      <path id="Path_22146" data-name="Path 22146" d="M1031.754,641.619s-1.286,6.1,6.126,5.722a7.558,7.558,0,0,1,7.65,4.242" transform="translate(-1015.869 -599.44)" fill="none" stroke="#1a1a1a" stroke-linecap="round" stroke-linejoin="round" stroke-width="2"/>
    </g>
    <g id="Group_11655" data-name="Group 11655" transform="translate(581.171 292.65)">
      <g id="Group_11654" data-name="Group 11654" transform="translate(7.045)">
        <path id="Path_22151" data-name="Path 22151" d="M713.172,994.267s-4.476-6-1.809-7.523,8.57-.428,9.189,7.523" transform="translate(-707.917 -981.828)" fill="none" stroke="#1a1a1a" stroke-linecap="round" stroke-linejoin="round" stroke-width="2"/>
        <path id="Path_22152" data-name="Path 22152" d="M742.881,1036.669l5.9,33.178h18.473l-12.189-33.039Z" transform="translate(-735.96 -1025.593)" fill="#fff" stroke="#1a1a1a" stroke-linecap="round" stroke-linejoin="round" stroke-width="1.5"/>
        <path id="Path_22153" data-name="Path 22153" d="M701.3,1069.761l2.888-33.091h2.666l5.9,33.178Z" transform="translate(-699.936 -1025.593)" fill="#fff" stroke="#1a1a1a" stroke-linecap="round" stroke-linejoin="round" stroke-width="1.5"/>
        <path id="Path_22154" data-name="Path 22154" d="M694.481,1036.832l-3.416,33.113,1.518-.205,2.738-33.071Z" transform="translate(-691.065 -1025.593)" fill="#1a1a1a"/>
        <path id="Path_22155" data-name="Path 22155" d="M745.151,965.8s-5.19-10.522,1.571-11.951,5.856,11.951,5.856,11.951" transform="translate(-736.278 -953.746)" fill="none" stroke="#1a1a1a" stroke-linecap="round" stroke-linejoin="round" stroke-width="1.5"/>
      </g>
      <path id="Path_22156" data-name="Path 22156" d="M638.327,1139.178l.714,19.485h5.19l-.254-19.485Z" transform="translate(-638.327 -1114.409)" fill="#fff" stroke="#1a1a1a" stroke-linecap="round" stroke-linejoin="round" stroke-width="1.5"/>
      <path id="Path_22157" data-name="Path 22157" d="M650.935,1106.384s-.7-6.539,1.46-6.666,1.4,5.269,1.4,5.269" transform="translate(-649.157 -1080.218)" fill="none" stroke="#1a1a1a" stroke-linecap="round" stroke-linejoin="round" stroke-width="1.5"/>
    </g>
  </g>
</svg>
